<?xml version="1.0" encoding="UTF-8"?>
<svg id="Layer_2" data-name="Layer 2" xmlns="http://www.w3.org/2000/svg" viewBox="0 0 444.59 253.39">
  <defs>
    <style>
      .cls-1 {
        fill: #c9c9c9;
        fill-rule: evenodd;
        stroke-width: 0px;
      }
    </style>
  </defs>
  <g id="cloud">
    <path id="cloud-2" data-name="cloud" class="cls-1" d="M60.48,109.61c.22-34.85,28.54-63.04,63.44-63.04,6.95,0,13.64,1.12,19.9,3.19C157.7,20.35,187.62,0,222.3,0s64.59,20.35,78.47,49.76c6.26-2.07,12.95-3.19,19.9-3.19,34.91,0,63.22,28.19,63.44,63.04.76.13,1.52.26,2.27.41,8.38.12,16.06,3.23,22.03,8.3,12.19,7.06,22.13,17.57,28.48,30.19l.25.51c.49,1,.97,2.02,1.42,3.04l.03.07c.22.5.43,1,.64,1.51l.03.07c.2.48.39.97.57,1.45l.09.23c.15.41.3.81.45,1.22l.29.82.28.82.3.91.21.69.32,1.06.17.59.31,1.14.15.57c.1.41.21.82.3,1.24l.1.45c.11.47.21.94.31,1.41l.06.31c.1.49.19.97.28,1.46l.05.28c.09.5.17,1,.25,1.5l.04.24c.08.53.16,1.06.22,1.6l.02.19c.07.55.13,1.1.19,1.65v.12c.07.55.12,1.1.16,1.66l.02.22c.04.54.08,1.09.1,1.64v.19c.04.57.06,1.14.07,1.71v.06s0,.06,0,.06c.01.6.02,1.2.02,1.81s0,1.21-.02,1.81v.06s0,.06,0,.06c-.01.57-.04,1.14-.06,1.71v.19c-.04.55-.07,1.1-.11,1.64l-.02.22c-.04.56-.09,1.11-.15,1.66v.12c-.07.55-.13,1.1-.2,1.65l-.02.19c-.07.53-.14,1.07-.22,1.6l-.04.24c-.08.5-.16,1-.25,1.5l-.05.28c-.09.49-.18.98-.28,1.46l-.06.31c-.1.47-.2.94-.31,1.41l-.1.45c-.1.41-.2.82-.3,1.24l-.14.56-.31,1.16-.17.59-.32,1.06-.21.69-.3.91-.28.82-.29.82c-.15.41-.3.82-.45,1.22l-.09.23c-.19.49-.38.97-.57,1.45l-.03.07c-.21.51-.42,1.01-.64,1.51l-.03.07c-.45,1.03-.92,2.04-1.42,3.04l-.25.51c-11.9,23.65-36.4,39.88-64.69,39.88h-.1s-299.63,0-299.63,0h-.1c-28.29,0-52.78-16.23-64.69-39.88l-.25-.51c-.49-1-.97-2.02-1.42-3.04l-.03-.07c-.22-.5-.43-1-.64-1.51l-.03-.07c-.2-.48-.39-.97-.57-1.45l-.09-.23c-.15-.41-.3-.81-.45-1.22l-.29-.82-.27-.82-.3-.91-.21-.69-.32-1.06-.17-.59c-.11-.38-.21-.77-.31-1.16l-.14-.56c-.1-.41-.21-.82-.3-1.24l-.1-.45c-.11-.47-.21-.94-.31-1.41l-.06-.31c-.1-.49-.19-.97-.28-1.46l-.05-.28c-.09-.5-.17-1-.25-1.5l-.04-.24c-.08-.53-.16-1.06-.22-1.6l-.02-.19c-.07-.55-.13-1.1-.19-1.65v-.12c-.07-.55-.12-1.11-.16-1.66l-.02-.22c-.04-.54-.08-1.09-.1-1.64v-.19c-.04-.57-.06-1.14-.07-1.71v-.06s0-.06,0-.06c-.01-.6-.02-1.2-.02-1.81s0-1.21.02-1.81v-.06s0-.06,0-.06c.01-.57.04-1.14.06-1.71v-.19c.04-.55.07-1.1.11-1.64l.02-.22c.04-.56.09-1.11.15-1.66v-.12c.07-.55.13-1.1.2-1.65l.02-.19c.07-.53.14-1.07.22-1.6l.04-.24c.08-.5.16-1,.25-1.5l.05-.28c.09-.49.18-.98.28-1.46l.06-.31c.1-.47.2-.94.31-1.41l.1-.45c.1-.41.2-.82.3-1.24l.15-.57.31-1.14.17-.59.32-1.06.21-.69.3-.91.27-.82.29-.82c.15-.41.3-.82.45-1.22l.09-.23c.19-.49.38-.97.57-1.45l.03-.07c.21-.51.42-1.01.64-1.51l.03-.07c.45-1.03.92-2.04,1.42-3.04l.25-.51c6.35-12.62,16.29-23.13,28.48-30.19,5.97-5.07,13.66-8.18,22.04-8.31.75-.15,1.51-.28,2.27-.41h0Z"/>
  </g>
</svg>