<?xml version="1.0" encoding="UTF-8"?>
<svg id="Layer_2" data-name="Layer 2" xmlns="http://www.w3.org/2000/svg" viewBox="0 0 471.81 471.81">
  <defs>
    <style>
      .cls-1 {
        fill: #ffd488;
        stroke: #ffcd2e;
        stroke-miterlimit: 10;
        stroke-width: 18.13px;
      }

      .cls-2 {
        fill: #ffcd2e;
        stroke-width: 0px;
      }
    </style>
  </defs>
  <g id="sun">
    <g id="sun-2" data-name="sun">
      <circle class="cls-2" cx="235.9" cy="235.9" r="105.91"/>
      <g>
        <g id="_Radial_Repeat_" data-name="&amp;lt;Radial Repeat&amp;gt;">
          <ellipse class="cls-1" cx="234.7" cy="411.29" rx="51.45" ry=".77" transform="translate(-178.2 643.17) rotate(-89.61)"/>
        </g>
        <g id="_Radial_Repeat_-2" data-name="&amp;lt;Radial Repeat&amp;gt;">
          <ellipse class="cls-1" cx="140.07" cy="382.8" rx="51.45" ry=".77" transform="translate(-257.07 290.95) rotate(-56.88)"/>
        </g>
        <g id="_Radial_Repeat_-3" data-name="&amp;lt;Radial Repeat&amp;gt;">
          <ellipse class="cls-1" cx="75.86" cy="307.67" rx="51.45" ry=".77" transform="translate(-119.25 57.97) rotate(-24.15)"/>
        </g>
        <g id="_Radial_Repeat_-4" data-name="&amp;lt;Radial Repeat&amp;gt;">
          <ellipse class="cls-1" cx="62.47" cy="209.75" rx=".77" ry="51.45" transform="translate(-154.25 240.25) rotate(-81.43)"/>
        </g>
        <g id="_Radial_Repeat_-5" data-name="&amp;lt;Radial Repeat&amp;gt;">
          <ellipse class="cls-1" cx="104.14" cy="120.14" rx=".77" ry="51.45" transform="translate(-54.85 119.08) rotate(-48.7)"/>
        </g>
        <g id="_Radial_Repeat_-6" data-name="&amp;lt;Radial Repeat&amp;gt;">
          <ellipse class="cls-1" cx="187.64" cy="67.28" rx=".77" ry="51.45" transform="translate(-11.27 54.23) rotate(-15.97)"/>
        </g>
        <g id="_Radial_Repeat_-7" data-name="&amp;lt;Radial Repeat&amp;gt;">
          <ellipse class="cls-1" cx="286.47" cy="67.96" rx="51.45" ry=".77" transform="translate(138.81 322.67) rotate(-73.24)"/>
        </g>
        <g id="_Radial_Repeat_-8" data-name="&amp;lt;Radial Repeat&amp;gt;">
          <ellipse class="cls-1" cx="369.24" cy="121.96" rx="51.45" ry=".77" transform="translate(9.31 269.12) rotate(-40.52)"/>
        </g>
        <g id="_Radial_Repeat_-9" data-name="&amp;lt;Radial Repeat&amp;gt;">
          <ellipse class="cls-1" cx="409.68" cy="212.13" rx="51.45" ry=".77" transform="translate(-24.97 57.48) rotate(-7.79)"/>
        </g>
        <g id="_Radial_Repeat_-10" data-name="&amp;lt;Radial Repeat&amp;gt;">
          <ellipse class="cls-1" cx="394.94" cy="309.86" rx=".77" ry="51.45" transform="translate(-52.55 537.33) rotate(-65.06)"/>
        </g>
        <g id="_Radial_Repeat_-11" data-name="&amp;lt;Radial Repeat&amp;gt;">
          <ellipse class="cls-1" cx="329.71" cy="384.1" rx=".77" ry="51.45" transform="translate(-154.31 235.91) rotate(-32.33)"/>
        </g>
      </g>
    </g>
  </g>
</svg>